<?xml version="1.0" standalone="no"?><!DOCTYPE svg PUBLIC "-//W3C//DTD SVG 1.1//EN" "http://www.w3.org/Graphics/SVG/1.1/DTD/svg11.dtd"><svg t="1742475623002" class="icon" viewBox="0 0 1024 1024" version="1.1" xmlns="http://www.w3.org/2000/svg" p-id="2683" xmlns:xlink="http://www.w3.org/1999/xlink" width="32" height="32"><path d="M341.333333 170.666667h341.333334V85.333333h85.333333v85.333334h42.666667a85.333333 85.333333 0 0 1 85.333333 85.333333v597.333333a85.333333 85.333333 0 0 1-85.333333 85.333334H213.333333a85.333333 85.333333 0 0 1-85.333333-85.333334V256a85.333333 85.333333 0 0 1 85.333333-85.333333h42.666667V85.333333h85.333333v85.333334zM213.333333 341.333333v512h597.333334V341.333333H213.333333z m85.333334 128h85.333333v85.333334H298.666667v-85.333334z m170.666666 0h85.333334v85.333334h-85.333334v-85.333334z m170.666667 0h85.333333v85.333334h-85.333333v-85.333334z m0 170.666667h85.333333v85.333333h-85.333333v-85.333333z m-170.666667 0h85.333334v85.333333h-85.333334v-85.333333z m-170.666666 0h85.333333v85.333333H298.666667v-85.333333z" fill="#000000" p-id="2684"></path></svg>