<?xml version="1.0" standalone="no"?><!DOCTYPE svg PUBLIC "-//W3C//DTD SVG 1.1//EN" "http://www.w3.org/Graphics/SVG/1.1/DTD/svg11.dtd"><svg t="1743070772644" class="icon" viewBox="0 0 1024 1024" version="1.1" xmlns="http://www.w3.org/2000/svg" p-id="4487" xmlns:xlink="http://www.w3.org/1999/xlink" width="32" height="32"><path d="M882 419c-24.2 37.5-54.6 70.6-89.9 98 0 0.3 0.4 0.5 0.5 0.8l45.5 113.5c2.5 6.3 2.4 13.3-0.3 19.5-2.7 6.2-7.8 11.1-14.1 13.5-13.2 5.2-28.1-1.2-33.4-14.3l-41.2-102.8c-33.3 20.2-69.1 35.9-106.5 47l22.1 106.1c1.4 6.7 0 13.6-3.8 19.2s-9.6 9.6-16.3 10.9c-1.7 0.3-3.5 0.5-5.2 0.5-12.1 0-22.5-8.5-25.1-20.3l-21.8-104.5C536 616.4 477.9 616 421.4 605l-18.5 104.9c-2.2 12.2-12.9 21.1-25.3 21.1-1.5 0-3-0.1-4.5-0.4-6.7-1.1-12.7-4.8-16.6-10.4-3.9-5.5-5.5-12.4-4.3-19.1l19.2-108.6c-39.2-12.2-76.6-29.8-111.1-52.1L227 630.5c-5 13.2-19.7 20-33 15.2-6.4-2.3-11.6-7-14.5-13.1-2.9-6.1-3.2-13.1-0.9-19.5l38.6-104.5c-30.8-25.7-57.5-55.9-79.3-89.6a25.4 25.4 0 0 1-3.3-19.2c1.5-6.6 5.6-12.3 11.4-15.9 12-7.6 27.8-4 35.5 7.9C256.7 499 379.2 562.7 510 562.7S763.4 499 838.6 392c7.6-11.9 23.5-15.5 35.5-7.9 5.7 3.6 9.8 9.3 11.3 15.8s0.3 13.4-3.4 19.1z m0 0" fill="#515151" p-id="4488"></path></svg>