<?xml version="1.0" standalone="no"?><!DOCTYPE svg PUBLIC "-//W3C//DTD SVG 1.1//EN" "http://www.w3.org/Graphics/SVG/1.1/DTD/svg11.dtd"><svg t="1743070809701" class="icon" viewBox="0 0 1024 1024" version="1.1" xmlns="http://www.w3.org/2000/svg" p-id="5029" xmlns:xlink="http://www.w3.org/1999/xlink" width="32" height="32"><path d="M959.327 577.01l-4.899-8.165c-6.532-8.164-13.063-17.962-19.596-26.128-3.265-3.266-4.899-6.532-8.164-9.798-3.266-4.899-8.165-9.798-11.432-14.697-3.265-3.266-6.532-8.165-9.798-11.431l-11.431-11.432-9.798-9.798-9.798-9.798 81.65-101.245-37.559-27.761-80.017 99.613c-3.266-1.633-4.899-3.265-8.165-6.532l-14.697-9.798c-3.266-3.266-8.165-4.899-11.431-8.166l-14.697-9.798c-4.899-3.265-8.165-4.899-13.064-6.532-4.899-3.266-9.798-4.899-14.697-8.165-4.899-1.633-8.165-4.899-13.064-6.532-4.899-3.266-11.431-4.899-16.33-8.165-1.633 0-3.266-1.633-4.899-1.633l50.623-115.943-44.091-17.962-44.091 101.245-6.532 16.331h-1.633c-9.798-3.266-17.963-4.899-27.761-8.165-1.633 0-3.266-1.633-6.532-1.633-22.862-4.899-45.725-9.798-68.586-13.064h-1.634c-11.431-1.633-22.861-1.633-32.659-3.266h-1.634V214.484h-47.356v124.108h-6.533c-8.164 0-14.697 1.634-22.861 1.634-3.266 0-8.165 0-11.432 1.633-8.164 1.633-16.33 1.633-24.495 3.266-3.265 0-6.532 1.633-9.798 1.633-9.798 1.633-17.962 3.266-27.76 4.899-1.634 0-4.899 1.633-6.533 1.633-11.431 3.266-22.861 6.533-32.659 9.798l-44.091-119.209-44.091 16.33 17.962 47.357 27.761 71.852c-3.266 1.633-4.899 1.633-8.165 3.265-4.899 1.634-9.798 4.899-14.697 6.533-4.899 1.633-9.798 4.899-14.697 6.532-4.899 3.266-9.798 4.899-14.697 8.165-4.899 3.265-9.798 4.899-13.063 8.164-4.899 3.266-9.798 4.899-14.697 8.165-4.899 3.266-8.165 4.899-13.064 8.165-4.899 3.265-9.798 6.532-13.064 9.798-1.633 1.633-4.899 3.265-6.532 4.899l-80.017-99.614-37.559 27.761 76.751 99.613h-1.634c-3.265 3.266-6.532 6.533-11.431 9.798-4.899 3.266-8.165 8.165-13.064 13.064l-6.532 6.532-16.33 16.331v1.633c-14.697 16.33-27.761 32.66-39.192 50.623l-4.899 8.165 4.899 8.165c99.613 138.805 264.546 223.72 442.543 223.72s344.563-83.283 442.543-223.72l4.9-8.165zM511.885 759.905c-153.502 0-295.573-68.586-385.388-182.896C216.312 457.8 358.383 385.948 511.885 385.948s295.573 70.219 385.388 191.061h1.633c-91.448 115.944-233.519 182.896-387.021 182.896zM652.323 577.01c0 76.751-62.054 140.438-140.438 140.438-76.751 0-140.438-62.055-140.438-140.438 0-76.751 62.054-140.438 140.438-140.438 76.752 1.633 140.438 63.686 140.438 140.438z" p-id="5030" fill="#515151"></path></svg>