<?xml version="1.0" standalone="no"?><!DOCTYPE svg PUBLIC "-//W3C//DTD SVG 1.1//EN" "http://www.w3.org/Graphics/SVG/1.1/DTD/svg11.dtd"><svg t="1741610683406" class="icon" viewBox="0 0 1024 1024" version="1.1" xmlns="http://www.w3.org/2000/svg" p-id="18442" xmlns:xlink="http://www.w3.org/1999/xlink" width="32" height="32"><path d="M610.688 408.384l-98.56-199.68-98.56 199.68-220.48 32 159.488 155.52-37.632 219.52 197.12-103.68 197.12 103.68-37.632-219.52 159.488-155.52-220.352-32z m319.36-18.24a19.2 19.2 0 0 1 10.688 32.768L740.352 618.24l47.36 275.84a19.2 19.2 0 0 1-27.904 20.224l-247.68-130.24-247.68 130.24a19.2 19.2 0 0 1-27.904-20.224l47.296-275.84-200.384-195.328a19.2 19.2 0 0 1 10.624-32.768l276.928-40.256 123.84-250.88a19.2 19.2 0 0 1 34.432 0l123.904 250.88 276.928 40.256z" fill="#5A5A5A" p-id="18443"></path></svg>